<svg width="30" height="30" viewBox="0 0 30 30" fill="none" xmlns="http://www.w3.org/2000/svg">
<g id="fluent:learning-app-24-regular">
<path id="Vector" d="M6.875 2.5C6.0462 2.5 5.25134 2.82924 4.66529 3.41529C4.07924 4.00134 3.75 4.7962 3.75 5.625V24.375C3.75 25.2038 4.07924 25.9987 4.66529 26.5847C5.25134 27.1708 6.0462 27.5 6.875 27.5H16.0125C15.4766 26.9421 15.0229 26.3108 14.665 25.625H6.875C6.54348 25.625 6.22554 25.4933 5.99112 25.2589C5.7567 25.0245 5.625 24.7065 5.625 24.375H14.1412C13.9451 23.7667 13.8218 23.1373 13.7738 22.5H5.625V5.625C5.625 5.29348 5.7567 4.97554 5.99112 4.74112C6.22554 4.5067 6.54348 4.375 6.875 4.375H21.25C21.5815 4.375 21.8995 4.5067 22.1339 4.74112C22.3683 4.97554 22.5 5.29348 22.5 5.625V13.7738C23.15 13.8238 23.7775 13.9487 24.375 14.1412V5.625C24.375 4.7962 24.0458 4.00134 23.4597 3.41529C22.8737 2.82924 22.0788 2.5 21.25 2.5H6.875ZM28.75 21.875C28.75 20.0516 28.0257 18.303 26.7364 17.0136C25.447 15.7243 23.6984 15 21.875 15C20.0516 15 18.303 15.7243 17.0136 17.0136C15.7243 18.303 15 20.0516 15 21.875C15 23.6984 15.7243 25.447 17.0136 26.7364C18.303 28.0257 20.0516 28.75 21.875 28.75C23.6984 28.75 25.447 28.0257 26.7364 26.7364C28.0257 25.447 28.75 23.6984 28.75 21.875ZM21.1425 18.8713L24.65 21.1712C24.7587 21.241 24.8478 21.3373 24.9091 21.451C24.9703 21.5647 25.0016 21.6921 25 21.8213C25.0001 21.9512 24.9693 22.0793 24.91 22.195C24.854 22.3095 24.7686 22.407 24.6625 22.4775L21.1538 24.8713C21.0927 24.9123 21.0262 24.9447 20.9562 24.9675C20.7938 25.0194 20.6178 25.0091 20.4625 24.9388C20.373 24.8968 20.2913 24.8397 20.2213 24.77C20.1536 24.6963 20.0986 24.6118 20.0588 24.52C20.0197 24.4261 19.9997 24.3254 20 24.2237V19.5263C19.9994 19.3758 20.0423 19.2285 20.1238 19.102C20.2052 18.9755 20.3216 18.8754 20.4588 18.8137C20.5677 18.7627 20.6882 18.741 20.8081 18.7509C20.9281 18.7607 21.0433 18.8018 21.1425 18.87V18.8713ZM7.5 7.5C7.5 7.16848 7.6317 6.85054 7.86612 6.61612C8.10054 6.3817 8.41848 6.25 8.75 6.25H18.75C19.0815 6.25 19.3995 6.3817 19.6339 6.61612C19.8683 6.85054 20 7.16848 20 7.5V10C20 10.3315 19.8683 10.6495 19.6339 10.8839C19.3995 11.1183 19.0815 11.25 18.75 11.25H8.75C8.41848 11.25 8.10054 11.1183 7.86612 10.8839C7.6317 10.6495 7.5 10.3315 7.5 10V7.5ZM9.375 9.375H18.125V8.125H9.375V9.375Z" fill="#4777E1"/>
</g>
</svg>
