<svg width="32" height="32" viewBox="0 0 32 32" fill="none" xmlns="http://www.w3.org/2000/svg">
<g id="electric-guitar 2" clip-path="url(#clip0_1_3367)">
<g id="g4494">
<g id="g4496">
<g id="Clip path group">
<mask id="mask0_1_3367" style="mask-type:luminance" maskUnits="userSpaceOnUse" x="0" y="2" width="32" height="32">
<g id="clipPath4502">
<path id="path4500" d="M0 2H32V34H0V2Z" fill="white"/>
</g>
</mask>
<g mask="url(#mask0_1_3367)">
<g id="g4498">
<g id="g4504">
<path id="path4506" d="M30.625 16.6875C30.625 25.1444 23.7694 32 15.3125 32C6.85563 32 0 25.1444 0 16.6875C0 8.23063 6.85563 1.375 15.3125 1.375C23.7694 1.375 30.625 8.23063 30.625 16.6875Z" fill="#B2CBFC" fill-opacity="0.4"/>
</g>
<g id="g4512">
<path id="path4514" d="M17.4626 26.0285L20.6758 22.8152C21.1671 22.324 21.1671 21.5274 20.6758 21.0361C20.4006 20.7609 20.0135 20.6286 19.6274 20.6777L19.1508 20.7384C17.2821 20.9762 15.4086 20.3357 14.0766 19.0037C12.1808 17.1079 11.7481 14.1952 13.0109 11.8302L14.5601 8.92924C14.7834 8.51099 14.7069 7.99593 14.3716 7.66062C13.9511 7.24012 13.2693 7.24012 12.8488 7.66062L5.97175 14.5377C5.227 15.2824 4.76488 16.2236 4.57232 17.2621C4.26838 18.9012 2.84057 20.0731 1.174 20.1147C0.912441 20.1213 0.654754 20.1429 0.400879 20.1763C0.893254 22.2902 1.83925 24.3197 3.23932 26.1096L3.23938 26.1091H3.63657V26.5959H3.63644C3.83788 26.8328 4.04738 27.0651 4.26557 27.2922L4.26613 27.2921H4.70813V27.7341L4.70775 27.7345C4.93494 27.9527 5.16732 28.1623 5.40425 28.3637L5.40432 28.3637L5.89113 28.3637V28.7609L5.89088 28.7611C7.68069 30.1611 9.71019 31.107 11.8239 31.5994C11.8573 31.3456 11.8789 31.088 11.8855 30.8265C11.9273 29.1598 13.0993 27.7319 14.7386 27.4279C15.7769 27.2352 16.7179 26.7731 17.4626 26.0285Z" fill="#FF4155"/>
</g>
<g id="g4516">
<path id="path4518" d="M8.37519 16.6876C8.37519 14.705 8.75194 12.8104 9.43782 11.0716L5.97169 14.5377C5.227 15.2824 4.76488 16.2236 4.57225 17.2621C4.26838 18.9012 2.8405 20.0731 1.174 20.1148C0.912379 20.1214 0.654691 20.143 0.400879 20.1763C0.893254 22.2902 1.83919 24.3197 3.23925 26.1096L3.23938 26.1092H3.6365V26.5959L3.63644 26.596C3.83782 26.8329 4.04732 27.0652 4.2655 27.2923L4.26613 27.2922H4.70807V27.7341L4.70775 27.7346C4.93494 27.9527 5.16732 28.1623 5.40419 28.3638L5.40432 28.3637H5.89107V28.7609L5.89082 28.7611C7.68069 30.1611 9.71013 31.1071 11.8239 31.5994C11.8573 31.3456 11.8789 31.0881 11.8854 30.8265C11.9143 29.6744 12.4835 28.6366 13.3736 28.0051C10.3024 25.2046 8.37519 21.1712 8.37519 16.6876Z" fill="#E80054"/>
</g>
<g id="g4520">
<path id="path4522" d="M13.8531 22.1246L9.87561 18.1471C9.50948 17.781 8.91592 17.781 8.5498 18.1471L2.16211 24.5348C3.46348 26.7109 5.2893 28.5368 7.46542 29.8381L13.8531 23.4504C14.2192 23.0843 14.2192 22.4908 13.8531 22.1246Z" fill="#E80054"/>
</g>
<g id="g4524">
<path id="path4526" d="M8.45336 18.2436L2.16211 24.5348C3.46348 26.7109 5.2893 28.5368 7.46542 29.8381L11.4333 25.8703C9.80592 23.7019 8.74042 21.0877 8.45336 18.2436Z" fill="#CC0053"/>
</g>
<g id="g4528">
<path id="path4530" d="M28.4375 9.08691L22.9131 3.56248L23.576 2.89954L29.1004 8.42398L28.4375 9.08691Z" fill="#543E5B"/>
</g>
<g id="g4532">
<path id="path4534" d="M28.106 9.41837C27.923 9.2353 27.923 8.93849 28.106 8.75543L28.769 8.09249C28.952 7.90943 29.2489 7.90943 29.4319 8.09249C29.615 8.27555 29.615 8.57237 29.4319 8.75543L28.769 9.41837C28.5859 9.60143 28.2891 9.60143 28.106 9.41837Z" fill="#6C5475"/>
</g>
<g id="g4536">
<path id="path4538" d="M22.5816 3.89395C22.7647 4.07702 23.0615 4.07702 23.2445 3.89395L23.9075 3.23102C24.0906 3.04795 24.0906 2.75114 23.9075 2.56808C23.7244 2.38502 23.4276 2.38502 23.2445 2.56808L22.5816 3.23102C22.3986 3.41408 22.3986 3.71089 22.5816 3.89395Z" fill="#6C5475"/>
</g>
<g id="g4540">
<path id="path4542" d="M10.8699 23.3398L8.66016 21.1301L24.5705 5.21972L26.7802 7.42953L10.8699 23.3398Z" fill="#6C5475"/>
</g>
<g id="g4544">
<path id="path4546" d="M18.8619 9.60247C19.045 9.41941 19.3418 9.41941 19.5248 9.60247L22.3975 12.4752C22.5806 12.6582 22.5806 12.955 22.3975 13.1381C22.2145 13.3212 21.9177 13.3212 21.7346 13.1381L18.8619 10.2653C18.6788 10.0823 18.6788 9.78553 18.8619 9.60247Z" fill="#D3DCFB"/>
</g>
<g id="g4548">
<path id="path4550" d="M21.109 7.35589C21.2921 7.17282 21.5889 7.17282 21.7719 7.35589L24.6446 10.2286C24.8277 10.4116 24.8277 10.7084 24.6446 10.8915C24.4616 11.0746 24.1648 11.0746 23.9817 10.8915L21.109 8.01882C20.9259 7.83576 20.9259 7.53895 21.109 7.35589Z" fill="#D3DCFB"/>
</g>
<g id="g4552">
<path id="path4554" d="M14.3687 14.0956C14.5518 13.9126 14.8486 13.9126 15.0317 14.0956L17.9044 16.9683C18.0874 17.1514 18.0874 17.4482 17.9044 17.6313C17.7214 17.8143 17.4246 17.8143 17.2415 17.6313L14.3687 14.7586C14.1857 14.5755 14.1857 14.2787 14.3687 14.0956Z" fill="#D3DCFB"/>
</g>
<g id="g4556">
<path id="path4558" d="M16.6154 11.849C16.7984 11.6659 17.0952 11.6659 17.2782 11.849L20.1509 14.7217C20.3341 14.9048 20.3341 15.2016 20.1509 15.3846C19.9679 15.5678 19.6711 15.5678 19.4881 15.3846L16.6154 12.5119C16.4322 12.3289 16.4322 12.0321 16.6154 11.849Z" fill="#D3DCFB"/>
</g>
<g id="g4560">
<path id="path4562" d="M12.1222 16.3422C12.3052 16.1592 12.602 16.1592 12.7851 16.3422L15.6578 19.2149C15.8408 19.398 15.8408 19.6948 15.6578 19.8778C15.4747 20.0609 15.1779 20.0609 14.9948 19.8778L12.1222 17.0051C11.9391 16.8221 11.9391 16.5253 12.1222 16.3422Z" fill="#D3DCFB"/>
</g>
<g id="g4564">
<path id="path4566" d="M7.33456 21.1301L8.43944 20.0252C8.62244 19.8421 8.91925 19.8421 9.10231 20.0252L11.9751 22.8979C12.1581 23.081 12.1581 23.3777 11.9751 23.5608L10.8702 24.6657C10.6871 24.8487 10.3904 24.8487 10.2072 24.6657L7.33456 21.7929C7.1515 21.6099 7.1515 21.3131 7.33456 21.1301Z" fill="#543E5B"/>
</g>
<g id="g4568">
<path id="path4570" d="M8.71223 19.8921C8.61248 19.9046 8.51598 19.9488 8.43942 20.0253L7.33461 21.1302C7.15148 21.3132 7.15148 21.61 7.33461 21.7931L10.2073 24.6658C10.337 24.7954 10.5235 24.8328 10.6865 24.7788C9.76405 23.2997 9.08698 21.6519 8.71223 19.8921Z" fill="#45304C"/>
</g>
<g id="g4572">
<path id="path4574" d="M4.24032 24.2235L5.3452 23.1187C5.5282 22.9356 5.82501 22.9356 6.00807 23.1187L8.88082 25.9914C9.06389 26.1745 9.06389 26.4713 8.88082 26.6543L7.77595 27.7591C7.59289 27.9423 7.29614 27.9423 7.11301 27.7591L4.24032 24.8865C4.05726 24.7034 4.05726 24.4066 4.24032 24.2235Z" fill="#45304C"/>
</g>
<g id="g4576">
<path id="path4578" d="M3.63638 26.5959L24.4601 5.77226L24.0181 5.33032L3.23926 26.1091C3.36782 26.2735 3.5002 26.4358 3.63638 26.5959Z" fill="#E9EFFF"/>
</g>
<g id="g4580">
<path id="path4582" d="M25.1235 6.43501L4.2666 27.2919C4.33866 27.3669 4.41091 27.4418 4.48479 27.5158C4.55866 27.5896 4.6336 27.6618 4.70854 27.7339L25.5655 6.87695L25.1235 6.43501Z" fill="#E9EFFF"/>
</g>
<g id="g4584">
<path id="path4586" d="M5.89111 28.7607L26.6699 7.98193L26.228 7.53993L5.4043 28.3636C5.56448 28.4998 5.7268 28.6322 5.89111 28.7607Z" fill="#E9EFFF"/>
</g>
<g id="g4588">
<path id="path4590" d="M30.8682 6.65601L25.3438 1.13157L26.0067 0.468631L31.5311 5.99307L30.8682 6.65601Z" fill="#543E5B"/>
</g>
<g id="g4592">
<path id="path4594" d="M26.1175 8.53444L23.4658 5.88275C23.2217 5.63862 23.2217 5.24287 23.4658 4.99881L27.4434 1.02125C27.6874 0.777124 28.0832 0.777124 28.3273 1.02125L30.979 3.67294C31.2231 3.91706 31.2231 4.31281 30.979 4.55687L27.0014 8.53444C26.7573 8.77856 26.3616 8.77856 26.1175 8.53444Z" fill="#FF4155"/>
</g>
<g id="g4596">
<path id="path4598" d="M24.7916 6.32456L28.7693 2.34693C29.0133 2.10287 29.4091 2.10287 29.6531 2.34693L28.3273 1.02112C28.0832 0.776997 27.6874 0.776997 27.4434 1.02112L23.4658 4.99868C23.2217 5.24275 23.2217 5.6385 23.4658 5.88262L24.7916 7.2085C24.5476 6.96437 24.5476 6.56862 24.7916 6.32456Z" fill="#E80054"/>
</g>
<g id="g4600">
<path id="path4602" d="M30.5372 6.9877C30.3541 6.80464 30.3541 6.50783 30.5372 6.32477L31.2001 5.66183C31.3832 5.47877 31.68 5.47877 31.8631 5.66183C32.0462 5.84489 32.0462 6.1417 31.8631 6.32477L31.2001 6.9877C31.0171 7.17077 30.7203 7.17077 30.5372 6.9877Z" fill="#6C5475"/>
</g>
<g id="g4608">
<path id="path4610" d="M28.0698 3.19425C27.8866 3.37731 27.5899 3.37731 27.4068 3.19425C27.2238 3.01118 27.2238 2.71437 27.4068 2.53131C27.5899 2.34825 27.8866 2.34825 28.0698 2.53131C28.2528 2.71437 28.2528 3.01118 28.0698 3.19425Z" fill="#543E5B"/>
</g>
<g id="g4612">
<path id="path4614" d="M29.4692 4.59366C29.2861 4.77672 28.9892 4.77672 28.8062 4.59366C28.6232 4.4106 28.6232 4.11379 28.8062 3.93072C28.9892 3.74766 29.2861 3.74766 29.4692 3.93072C29.6522 4.11379 29.6522 4.4106 29.4692 4.59366Z" fill="#6C5475"/>
</g>
<g id="g4616">
<path id="path4618" d="M25.6757 5.66178C25.4926 5.84484 25.1958 5.84484 25.0128 5.66178C24.8297 5.47871 24.8297 5.1819 25.0128 4.99884C25.1958 4.81578 25.4926 4.81578 25.6757 4.99884C25.8588 5.1819 25.8588 5.47871 25.6757 5.66178Z" fill="#543E5B"/>
</g>
<g id="g4620">
<path id="path4622" d="M27.0014 6.9877C26.8183 7.17077 26.5215 7.17077 26.3385 6.9877C26.1554 6.80464 26.1554 6.50783 26.3385 6.32477C26.5215 6.1417 26.8183 6.1417 27.0014 6.32477C27.1845 6.50783 27.1845 6.80464 27.0014 6.9877Z" fill="#6C5475"/>
</g>
<g id="g4624">
<path id="path4626" d="M17.2073 24.1529C16.8413 24.519 16.2477 24.519 15.8815 24.1529C15.5154 23.7868 15.5154 23.1932 15.8815 22.8271C16.2477 22.461 16.8413 22.461 17.2073 22.8271C17.5735 23.1932 17.5735 23.7868 17.2073 24.1529Z" fill="#6C5475"/>
</g>
<g id="g4628">
<path id="path4630" d="M16.5444 23.4901C16.7897 23.2448 17.1368 23.1648 17.4493 23.248C17.4083 23.094 17.3282 22.9481 17.2073 22.8272C16.8412 22.4611 16.2476 22.4611 15.8815 22.8272C15.5154 23.1933 15.5154 23.7869 15.8815 24.153C16.0024 24.2739 16.1482 24.354 16.3023 24.395C16.2191 24.0825 16.2992 23.7353 16.5444 23.4901Z" fill="#543E5B"/>
</g>
</g>
</g>
</g>
</g>
</g>
</g>
<defs>
<clipPath id="clip0_1_3367">
<rect width="32" height="32" fill="white"/>
</clipPath>
</defs>
</svg>
