<svg width="30" height="30" viewBox="0 0 30 30" fill="none" xmlns="http://www.w3.org/2000/svg">
<g id="solar:branching-paths-up-linear">
<g id="Group">
<path id="Vector" d="M2.74512 14.7058C2.74512 8.92887 2.74512 6.04039 4.53923 4.24505C6.3358 2.45093 9.22306 2.45093 15 2.45093C20.777 2.45093 23.6655 2.45093 25.4596 4.24505C27.2549 6.04161 27.2549 8.92887 27.2549 14.7058C27.2549 20.4828 27.2549 23.3713 25.4596 25.1654C23.6667 26.9607 20.777 26.9607 15 26.9607C9.22306 26.9607 6.33458 26.9607 4.53923 25.1654C2.74512 23.3725 2.74512 20.4828 2.74512 14.7058Z" stroke="#4777E1" stroke-width="2.20588"/>
<path id="Vector_2" d="M14.0806 22.0589C14.0806 22.3026 14.1774 22.5364 14.3498 22.7088C14.5221 22.8811 14.7559 22.978 14.9997 22.978C15.2434 22.978 15.4772 22.8811 15.6496 22.7088C15.822 22.5364 15.9188 22.3026 15.9188 22.0589H14.0806ZM22.3526 9.80396L23.0021 10.4535C23.1743 10.2811 23.2709 10.0475 23.2709 9.80396C23.2709 9.56039 23.1743 9.32679 23.0021 9.15445L22.3526 9.80396ZM21.1639 7.31622C21.0798 7.22591 20.9783 7.15348 20.8655 7.10325C20.7528 7.05301 20.6311 7.026 20.5077 7.02382C20.3843 7.02165 20.2617 7.04435 20.1472 7.09058C20.0328 7.1368 19.9288 7.20561 19.8415 7.29288C19.7543 7.38016 19.6855 7.48413 19.6392 7.59857C19.593 7.71302 19.5703 7.8356 19.5725 7.95901C19.5747 8.08242 19.6017 8.20413 19.6519 8.31688C19.7021 8.42962 19.7746 8.53109 19.8649 8.61524L21.1639 7.31622ZM19.8649 10.9927C19.7746 11.0768 19.7021 11.1783 19.6519 11.291C19.6017 11.4038 19.5747 11.5255 19.5725 11.6489C19.5703 11.7723 19.593 11.8949 19.6392 12.0094C19.6855 12.1238 19.7543 12.2278 19.8415 12.315C19.9288 12.4023 20.0328 12.4711 20.1472 12.5173C20.2617 12.5636 20.3843 12.5863 20.5077 12.5841C20.6311 12.5819 20.7528 12.5549 20.8655 12.5047C20.9783 12.4544 21.0798 12.382 21.1639 12.2917L19.8649 10.9927ZM15.9188 22.0589V14.7059H14.0806V22.0589H15.9188ZM19.9016 10.7231H22.3526V8.88484H19.9016V10.7231ZM23.0021 9.15445L21.1639 7.31622L19.8649 8.61524L21.7031 10.4535L23.0021 9.15445ZM21.7031 9.15445L19.8649 10.9927L21.1639 12.2917L23.0021 10.4535L21.7031 9.15445ZM15.9188 14.7059C15.9188 13.6496 16.3384 12.6366 17.0854 11.8896C17.8323 11.1427 18.8453 10.7231 19.9016 10.7231V8.88484C18.3578 8.88484 16.8772 9.49813 15.7855 10.5898C14.6939 11.6815 14.0806 13.1621 14.0806 14.7059H15.9188Z" fill="#4777E1"/>
<path id="Vector_3" d="M14.0811 22.0587C14.0811 22.3024 14.178 22.5362 14.3503 22.7086C14.5227 22.8809 14.7565 22.9778 15.0003 22.9778C15.244 22.9778 15.4778 22.8809 15.6502 22.7086C15.8225 22.5362 15.9194 22.3024 15.9194 22.0587H14.0811ZM7.64731 9.80376L6.9978 9.15425C6.82568 9.32659 6.729 9.5602 6.729 9.80376C6.729 10.0473 6.82568 10.2809 6.9978 10.4533L7.64731 9.80376ZM10.1351 8.61504C10.2974 8.4408 10.3858 8.21035 10.3816 7.97224C10.3774 7.73413 10.2809 7.50694 10.1125 7.33854C9.94414 7.17014 9.71695 7.07368 9.47884 7.06948C9.24072 7.06528 9.01027 7.15366 8.83604 7.31602L10.1351 8.61504ZM8.83604 12.2915C8.92018 12.3818 9.02165 12.4542 9.1344 12.5045C9.24714 12.5547 9.36885 12.5817 9.49226 12.5839C9.61567 12.5861 9.73826 12.5634 9.8527 12.5171C9.96715 12.4709 10.0711 12.4021 10.1584 12.3148C10.2457 12.2276 10.3145 12.1236 10.3607 12.0092C10.4069 11.8947 10.4296 11.7721 10.4274 11.6487C10.4253 11.5253 10.3983 11.4036 10.348 11.2908C10.2978 11.1781 10.2254 11.0766 10.1351 10.9925L8.83604 12.2915ZM15.9194 22.0587V14.7057H14.0811V22.0587H15.9194ZM10.0983 8.88464H7.64731V10.7229H10.0983V8.88464ZM8.29682 10.4533L10.1351 8.61504L8.83604 7.31602L6.9978 9.15425L8.29682 10.4533ZM6.9978 10.4533L8.83604 12.2915L10.1351 10.9925L8.29682 9.15425L6.9978 10.4533ZM15.9194 14.7057C15.9194 13.1619 15.3061 11.6813 14.2144 10.5896C13.1228 9.49794 11.6421 8.88464 10.0983 8.88464V10.7229C11.1546 10.7229 12.1677 11.1425 12.9146 11.8894C13.6615 12.6364 14.0811 13.6494 14.0811 14.7057H15.9194Z" fill="#4777E1"/>
</g>
</g>
</svg>
