<svg width="24" height="25" viewBox="0 0 24 25" fill="none" xmlns="http://www.w3.org/2000/svg">
<g id="fluent-emoji:money-bag" clip-path="url(#clip0_1_3166)">
<g id="Group">
<g id="Group_2" filter="url(#filter0_d_1_3166)">
<path id="Vector" d="M3.33154 15.8518C3.33154 11.0886 7.19329 7.22681 11.9565 7.22681H12.3788C17.1413 7.22681 21.0038 11.0886 21.0038 15.8518V16.0663C21.0038 17.8167 20.3084 19.4955 19.0707 20.7332C17.833 21.971 16.1542 22.6663 14.4038 22.6663H9.93154C8.18111 22.6663 6.50238 21.971 5.26464 20.7332C4.0269 19.4955 3.33154 17.8167 3.33154 16.0663V15.8518Z" fill="url(#paint0_radial_1_3166)"/>
<path id="Vector_2" d="M3.33154 15.8518C3.33154 11.0886 7.19329 7.22681 11.9565 7.22681H12.3788C17.1413 7.22681 21.0038 11.0886 21.0038 15.8518V16.0663C21.0038 17.8167 20.3084 19.4955 19.0707 20.7332C17.833 21.971 16.1542 22.6663 14.4038 22.6663H9.93154C8.18111 22.6663 6.50238 21.971 5.26464 20.7332C4.0269 19.4955 3.33154 17.8167 3.33154 16.0663V15.8518Z" fill="url(#paint1_radial_1_3166)"/>
</g>
<path id="Vector_3" d="M3.33154 15.8518C3.33154 11.0886 7.19329 7.22681 11.9565 7.22681H12.3788C17.1413 7.22681 21.0038 11.0886 21.0038 15.8518V16.0663C21.0038 17.8167 20.3084 19.4955 19.0707 20.7332C17.833 21.971 16.1542 22.6663 14.4038 22.6663H9.93154C8.18111 22.6663 6.50238 21.971 5.26464 20.7332C4.0269 19.4955 3.33154 17.8167 3.33154 16.0663V15.8518Z" fill="url(#paint2_radial_1_3166)"/>
<path id="Vector_4" d="M3.33154 15.8518C3.33154 11.0886 7.19329 7.22681 11.9565 7.22681H12.3788C17.1413 7.22681 21.0038 11.0886 21.0038 15.8518V16.0663C21.0038 17.8167 20.3084 19.4955 19.0707 20.7332C17.833 21.971 16.1542 22.6663 14.4038 22.6663H9.93154C8.18111 22.6663 6.50238 21.971 5.26464 20.7332C4.0269 19.4955 3.33154 17.8167 3.33154 16.0663V15.8518Z" fill="url(#paint3_radial_1_3166)"/>
<g id="Group_3" filter="url(#filter1_dd_1_3166)">
<path id="Vector_5" d="M9.12063 3.71074C9.47313 4.31149 9.98688 5.08249 10.6469 5.71474H13.6881C14.3481 5.08249 14.8611 4.31224 15.2144 3.71074C15.2566 3.63699 15.2833 3.55536 15.2928 3.4709C15.3024 3.38643 15.2945 3.30091 15.2697 3.21961C15.2449 3.13831 15.2037 3.06295 15.1486 2.99818C15.0936 2.93341 15.0259 2.88059 14.9496 2.84299C14.7096 2.71999 14.4276 2.77849 14.1944 2.91424C13.6679 3.22099 13.3641 2.85949 12.8999 2.14924C12.6666 1.79224 12.3104 1.77349 12.1671 1.77124C12.0246 1.77349 11.6684 1.79224 11.4351 2.14924C10.9701 2.85949 10.6671 3.22099 10.1406 2.91424C9.90738 2.77849 9.62538 2.71999 9.38463 2.84299C9.30846 2.88066 9.24081 2.93352 9.18585 2.99833C9.13089 3.06313 9.08977 3.1385 9.06504 3.21979C9.04031 3.30109 9.03248 3.38658 9.04204 3.47102C9.0516 3.55545 9.07834 3.63703 9.12063 3.71074Z" fill="url(#paint4_linear_1_3166)"/>
</g>
<g id="Group_4" filter="url(#filter2_f_1_3166)">
<path id="Vector_6" d="M12.6002 10.883C12.6002 10.7238 12.537 10.5712 12.4245 10.4587C12.3119 10.3462 12.1593 10.283 12.0002 10.283C11.8411 10.283 11.6885 10.3462 11.5759 10.4587C11.4634 10.5712 11.4002 10.7238 11.4002 10.883V11.4492C11.4002 11.5835 11.3102 11.6997 11.185 11.7477C10.9686 11.8299 10.7646 11.9418 10.579 12.08C10.3055 12.2803 10.084 12.5432 9.93299 12.8467C9.78202 13.1502 9.70596 13.4855 9.7112 13.8245C9.7112 14.6195 10.0697 15.1955 10.5565 15.5645C11.02 15.917 11.5802 16.0685 12.0265 16.109C12.208 16.1255 12.4787 16.1742 12.7022 16.3152C12.8965 16.4375 13.0892 16.6467 13.1297 17.0952C13.1687 17.5242 12.9947 17.7792 12.7675 17.9525C12.505 18.1527 12.1997 18.2165 12.1225 18.2165C11.9417 18.2165 11.632 18.1925 11.3695 18.05C11.149 17.93 10.912 17.7042 10.8625 17.1515C10.8482 16.9929 10.7716 16.8465 10.6495 16.7445C10.5273 16.6424 10.3696 16.5931 10.2111 16.6073C10.0525 16.6216 9.90615 16.6982 9.80411 16.8203C9.70207 16.9425 9.65273 17.1002 9.66695 17.2587C9.75245 18.218 10.2295 18.7962 10.7972 19.1052C10.9225 19.1727 11.0492 19.226 11.173 19.268C11.2376 19.2882 11.2943 19.3281 11.335 19.3822C11.3758 19.4363 11.3986 19.5018 11.4002 19.5695V20.0817C11.4002 20.2408 11.4634 20.3935 11.5759 20.506C11.6885 20.6185 11.8411 20.6817 12.0002 20.6817C12.1593 20.6817 12.3119 20.6185 12.4245 20.506C12.537 20.3935 12.6002 20.2408 12.6002 20.0817V19.5747C12.6002 19.4397 12.6917 19.322 12.8192 19.2747C13.0442 19.1922 13.2797 19.0707 13.4942 18.9072C13.993 18.527 14.4077 17.8947 14.3252 16.9872C14.2487 16.1465 13.8272 15.6402 13.3352 15.3297C12.9647 15.1037 12.5482 14.9638 12.1165 14.9202C11.4347 14.885 10.9112 14.5085 10.9112 13.8245C10.9112 13.448 11.0612 13.172 11.2817 13.007C11.7385 12.62 12.5147 12.6725 12.8815 13.1585C13.0435 13.3737 13.1162 13.6107 13.1327 13.8245C13.1582 14.1545 13.444 14.4177 13.7747 14.3922C14.1047 14.3675 14.3515 14.1087 14.326 13.778C14.2899 13.303 14.1201 12.848 13.8362 12.4655C13.6082 12.1625 13.177 11.873 12.8237 11.7275C12.76 11.7035 12.7047 11.6613 12.665 11.606C12.6252 11.5508 12.6027 11.485 12.6002 11.417V10.883Z" fill="url(#paint5_linear_1_3166)"/>
</g>
<g id="Group_5" filter="url(#filter3_dd_1_3166)">
<path id="Vector_7" d="M12.7501 10.8065C12.7501 10.6474 12.6869 10.4948 12.5743 10.3823C12.4618 10.2698 12.3092 10.2065 12.1501 10.2065C11.9909 10.2065 11.8383 10.2698 11.7258 10.3823C11.6133 10.4948 11.5501 10.6474 11.5501 10.8065V11.3728C11.5501 11.5078 11.4601 11.6233 11.3348 11.6713C11.1185 11.7536 10.9145 11.8654 10.7288 12.0035C10.4555 12.204 10.2342 12.4669 10.0834 12.7705C9.93252 13.074 9.85656 13.4092 9.86182 13.748C9.86182 14.543 10.2196 15.119 10.7063 15.488C11.1698 15.8405 11.7293 15.9928 12.1763 16.0333C12.3578 16.0498 12.6286 16.0978 12.8528 16.2388C13.0463 16.361 13.2391 16.5703 13.2803 17.0188C13.3193 17.4485 13.1446 17.7035 12.9166 17.8768C12.6541 18.077 12.3496 18.14 12.2716 18.14C12.0916 18.14 11.7818 18.116 11.5193 17.9743C11.2988 17.8543 11.0618 17.6278 11.0123 17.0758C11.0053 16.9973 10.9829 16.9209 10.9464 16.8511C10.9099 16.7813 10.86 16.7193 10.7996 16.6687C10.7391 16.6182 10.6693 16.58 10.5941 16.5564C10.5189 16.5328 10.4398 16.5243 10.3613 16.5313C10.2828 16.5383 10.2065 16.5607 10.1366 16.5972C10.0668 16.6337 10.0048 16.6836 9.95424 16.744C9.90368 16.8045 9.86552 16.8743 9.84194 16.9495C9.81836 17.0247 9.80983 17.1038 9.81682 17.1823C9.90232 18.1423 10.3793 18.7205 10.9471 19.0288C11.0723 19.0963 11.1991 19.1503 11.3228 19.1915C11.4541 19.2365 11.5501 19.355 11.5501 19.4938V20.006C11.5501 20.1652 11.6133 20.3178 11.7258 20.4303C11.8383 20.5428 11.9909 20.606 12.1501 20.606C12.3092 20.606 12.4618 20.5428 12.5743 20.4303C12.6869 20.3178 12.7501 20.1652 12.7501 20.006V19.499C12.7501 19.3633 12.8416 19.2463 12.9691 19.199C13.1941 19.1165 13.4296 18.995 13.6441 18.8315C14.1428 18.4513 14.5576 17.8183 14.4751 16.9108C14.3986 16.07 13.9771 15.5645 13.4851 15.2533C13.1146 15.0273 12.6981 14.8873 12.2663 14.8438C11.5846 14.8085 11.0611 14.432 11.0611 13.7488C11.0611 13.3723 11.2111 13.0963 11.4316 12.9313C11.8883 12.5443 12.6646 12.5968 13.0313 13.0828C13.1933 13.298 13.2661 13.535 13.2826 13.748C13.3081 14.078 13.5938 14.342 13.9246 14.3165C14.2546 14.291 14.5013 14.0323 14.4758 13.7015C14.4398 13.2266 14.27 12.7715 13.9861 12.389C13.7581 12.0868 13.3268 11.7965 12.9736 11.651C12.9098 11.6271 12.8546 11.5849 12.8148 11.5296C12.7751 11.4744 12.7525 11.4086 12.7501 11.3405V10.8065Z" fill="url(#paint6_linear_1_3166)"/>
</g>
<g id="Group_6" filter="url(#filter4_d_1_3166)">
<path id="Vector_8" d="M13.5123 5.71484H10.7882C10.3529 5.71484 10 6.06776 10 6.50309V6.50834C10 6.94368 10.3529 7.29659 10.7882 7.29659H13.5123C13.9476 7.29659 14.3005 6.94368 14.3005 6.50834V6.50309C14.3005 6.06776 13.9476 5.71484 13.5123 5.71484Z" fill="url(#paint7_linear_1_3166)"/>
<path id="Vector_9" d="M13.5123 5.71484H10.7882C10.3529 5.71484 10 6.06776 10 6.50309V6.50834C10 6.94368 10.3529 7.29659 10.7882 7.29659H13.5123C13.9476 7.29659 14.3005 6.94368 14.3005 6.50834V6.50309C14.3005 6.06776 13.9476 5.71484 13.5123 5.71484Z" fill="url(#paint8_radial_1_3166)"/>
</g>
<path id="Vector_10" d="M13.5123 5.71484H10.7882C10.3529 5.71484 10 6.06776 10 6.50309V6.50834C10 6.94368 10.3529 7.29659 10.7882 7.29659H13.5123C13.9476 7.29659 14.3005 6.94368 14.3005 6.50834V6.50309C14.3005 6.06776 13.9476 5.71484 13.5123 5.71484Z" fill="url(#paint9_radial_1_3166)"/>
</g>
</g>
<defs>
<filter id="filter0_d_1_3166" x="0.831543" y="2.22681" width="24.6724" height="22.4395" filterUnits="userSpaceOnUse" color-interpolation-filters="sRGB">
<feFlood flood-opacity="0" result="BackgroundImageFix"/>
<feColorMatrix in="SourceAlpha" type="matrix" values="0 0 0 0 0 0 0 0 0 0 0 0 0 0 0 0 0 0 127 0" result="hardAlpha"/>
<feOffset dx="1" dy="-1.5"/>
<feGaussianBlur stdDeviation="1.75"/>
<feComposite in2="hardAlpha" operator="out"/>
<feColorMatrix type="matrix" values="0 0 0 0 0.713726 0 0 0 0 0.321569 0 0 0 0 0.211765 0 0 0 1 0"/>
<feBlend mode="normal" in2="BackgroundImageFix" result="effect1_dropShadow_1_3166"/>
<feBlend mode="normal" in="SourceGraphic" in2="effect1_dropShadow_1_3166" result="shape"/>
</filter>
<filter id="filter1_dd_1_3166" x="8.53809" y="1.02124" width="7.35879" height="5.1936" filterUnits="userSpaceOnUse" color-interpolation-filters="sRGB">
<feFlood flood-opacity="0" result="BackgroundImageFix"/>
<feColorMatrix in="SourceAlpha" type="matrix" values="0 0 0 0 0 0 0 0 0 0 0 0 0 0 0 0 0 0 127 0" result="hardAlpha"/>
<feOffset dx="-0.2" dy="0.2"/>
<feGaussianBlur stdDeviation="0.15"/>
<feComposite in2="hardAlpha" operator="out"/>
<feColorMatrix type="matrix" values="0 0 0 0 1 0 0 0 0 0.92549 0 0 0 0 0.403922 0 0 0 1 0"/>
<feBlend mode="normal" in2="BackgroundImageFix" result="effect1_dropShadow_1_3166"/>
<feColorMatrix in="SourceAlpha" type="matrix" values="0 0 0 0 0 0 0 0 0 0 0 0 0 0 0 0 0 0 127 0" result="hardAlpha"/>
<feOffset dx="0.1" dy="-0.25"/>
<feGaussianBlur stdDeviation="0.25"/>
<feComposite in2="hardAlpha" operator="out"/>
<feColorMatrix type="matrix" values="0 0 0 0 0.788235 0 0 0 0 0.364706 0 0 0 0 0.12549 0 0 0 1 0"/>
<feBlend mode="normal" in2="effect1_dropShadow_1_3166" result="effect2_dropShadow_1_3166"/>
<feBlend mode="normal" in="SourceGraphic" in2="effect2_dropShadow_1_3166" result="shape"/>
</filter>
<filter id="filter2_f_1_3166" x="9.36455" y="9.98296" width="5.27139" height="10.9987" filterUnits="userSpaceOnUse" color-interpolation-filters="sRGB">
<feFlood flood-opacity="0" result="BackgroundImageFix"/>
<feBlend mode="normal" in="SourceGraphic" in2="BackgroundImageFix" result="shape"/>
<feGaussianBlur stdDeviation="0.15" result="effect1_foregroundBlur_1_3166"/>
</filter>
<filter id="filter3_dd_1_3166" x="9.49445" y="9.70654" width="5.4409" height="11.2694" filterUnits="userSpaceOnUse" color-interpolation-filters="sRGB">
<feFlood flood-opacity="0" result="BackgroundImageFix"/>
<feColorMatrix in="SourceAlpha" type="matrix" values="0 0 0 0 0 0 0 0 0 0 0 0 0 0 0 0 0 0 127 0" result="hardAlpha"/>
<feOffset dx="0.15" dy="-0.2"/>
<feGaussianBlur stdDeviation="0.15"/>
<feComposite in2="hardAlpha" operator="out"/>
<feColorMatrix type="matrix" values="0 0 0 0 0.352941 0 0 0 0 0.168627 0 0 0 0 0.188235 0 0 0 1 0"/>
<feBlend mode="normal" in2="BackgroundImageFix" result="effect1_dropShadow_1_3166"/>
<feColorMatrix in="SourceAlpha" type="matrix" values="0 0 0 0 0 0 0 0 0 0 0 0 0 0 0 0 0 0 127 0" result="hardAlpha"/>
<feOffset dx="-0.1" dy="0.15"/>
<feGaussianBlur stdDeviation="0.11"/>
<feComposite in2="hardAlpha" operator="out"/>
<feColorMatrix type="matrix" values="0 0 0 0 0.670588 0 0 0 0 0.458824 0 0 0 0 0.403922 0 0 0 1 0"/>
<feBlend mode="normal" in2="effect1_dropShadow_1_3166" result="effect2_dropShadow_1_3166"/>
<feBlend mode="normal" in="SourceGraphic" in2="effect2_dropShadow_1_3166" result="shape"/>
</filter>
<filter id="filter4_d_1_3166" x="9" y="4.11484" width="6.30029" height="3.58179" filterUnits="userSpaceOnUse" color-interpolation-filters="sRGB">
<feFlood flood-opacity="0" result="BackgroundImageFix"/>
<feColorMatrix in="SourceAlpha" type="matrix" values="0 0 0 0 0 0 0 0 0 0 0 0 0 0 0 0 0 0 127 0" result="hardAlpha"/>
<feOffset dy="-0.6"/>
<feGaussianBlur stdDeviation="0.5"/>
<feComposite in2="hardAlpha" operator="out"/>
<feColorMatrix type="matrix" values="0 0 0 0 0.388235 0 0 0 0 0.223529 0 0 0 0 0.109804 0 0 0 1 0"/>
<feBlend mode="normal" in2="BackgroundImageFix" result="effect1_dropShadow_1_3166"/>
<feBlend mode="normal" in="SourceGraphic" in2="effect1_dropShadow_1_3166" result="shape"/>
</filter>
<radialGradient id="paint0_radial_1_3166" cx="0" cy="0" r="1" gradientUnits="userSpaceOnUse" gradientTransform="translate(14.5809 8.67445) rotate(100.07) scale(13.8064 14.4607)">
<stop stop-color="#F6C93B"/>
<stop offset="1" stop-color="#E88340"/>
</radialGradient>
<radialGradient id="paint1_radial_1_3166" cx="0" cy="0" r="1" gradientUnits="userSpaceOnUse" gradientTransform="translate(18.0506 10.8297) rotate(133.199) scale(5.27276 8.83395)">
<stop stop-color="#FFE065"/>
<stop offset="1" stop-color="#FFE065" stop-opacity="0"/>
</radialGradient>
<radialGradient id="paint2_radial_1_3166" cx="0" cy="0" r="1" gradientUnits="userSpaceOnUse" gradientTransform="translate(4.55029 10.8306) rotate(31.6513) scale(4.01979 9.96247)">
<stop offset="0.187" stop-color="#FFA45D"/>
<stop offset="1" stop-color="#FFA45D" stop-opacity="0"/>
</radialGradient>
<radialGradient id="paint3_radial_1_3166" cx="0" cy="0" r="1" gradientUnits="userSpaceOnUse" gradientTransform="translate(12.1673 19.1271) rotate(-90) scale(12.2344 18.4329)">
<stop offset="0.928" stop-color="#F3BD46" stop-opacity="0"/>
<stop offset="0.98" stop-color="#917011"/>
</radialGradient>
<linearGradient id="paint4_linear_1_3166" x1="13.1076" y1="3.10774" x2="12.1671" y2="5.71474" gradientUnits="userSpaceOnUse">
<stop stop-color="#F3C048"/>
<stop offset="1" stop-color="#E67A41"/>
</linearGradient>
<linearGradient id="paint5_linear_1_3166" x1="12.0002" y1="10.5312" x2="12.0002" y2="20.141" gradientUnits="userSpaceOnUse">
<stop stop-color="#A6782C"/>
<stop offset="1" stop-color="#B95940"/>
</linearGradient>
<linearGradient id="paint6_linear_1_3166" x1="14.7458" y1="16.5958" x2="9.81457" y2="16.5958" gradientUnits="userSpaceOnUse">
<stop stop-color="#9D6360"/>
<stop offset="1" stop-color="#724A4D"/>
</linearGradient>
<linearGradient id="paint7_linear_1_3166" x1="10.5977" y1="6.50609" x2="14.3005" y2="6.50609" gradientUnits="userSpaceOnUse">
<stop stop-color="#834B41"/>
<stop offset="1" stop-color="#735854"/>
</linearGradient>
<radialGradient id="paint8_radial_1_3166" cx="0" cy="0" r="1" gradientUnits="userSpaceOnUse" gradientTransform="translate(13.5505 6.26009) rotate(180) scale(1.40039 1.05469)">
<stop stop-color="#7D5A54"/>
<stop offset="1" stop-color="#7D5A54" stop-opacity="0"/>
</radialGradient>
<radialGradient id="paint9_radial_1_3166" cx="0" cy="0" r="1" gradientUnits="userSpaceOnUse" gradientTransform="translate(13.738 6.50609) rotate(180) scale(4.14844 3.32327)">
<stop offset="0.695" stop-color="#B3624D" stop-opacity="0"/>
<stop offset="0.96" stop-color="#B3624D"/>
</radialGradient>
<clipPath id="clip0_1_3166">
<rect width="24" height="24" fill="white" transform="translate(0 0.189453)"/>
</clipPath>
</defs>
</svg>
