<svg width="30" height="29" viewBox="0 0 30 29" fill="none" xmlns="http://www.w3.org/2000/svg">
<g id="ps:music" clip-path="url(#clip0_1_3151)">
<path id="Vector" d="M28.0273 0.73626C27.1589 0.0565723 26.1204 -0.15111 24.9121 0.113213L12.8477 3.62493C12.0547 3.77597 11.4128 4.1819 10.9219 4.84271C10.431 5.50351 10.1855 6.26816 10.1855 7.13665V20.4472C9.20378 19.692 7.99544 19.3144 6.56055 19.3144C4.86133 19.3144 3.42643 19.7958 2.25586 20.7587C1.08529 21.7216 0.5 22.8639 0.5 24.1855C0.5 25.5071 1.08529 26.6399 2.25586 27.5839C3.42643 28.5279 4.86133 28.9999 6.56055 28.9999C8.22201 28.9999 9.63802 28.4902 10.8086 27.4706C11.9792 26.4511 12.5645 25.2617 12.5645 23.9023V23.8456C12.5267 23.8079 12.4889 23.5058 12.4512 22.9394H12.5645V12.0644C12.5645 11.5735 12.8477 11.177 13.4141 10.8749L25.5352 7.36321C25.8372 7.24993 26.196 7.32545 26.6113 7.58978C26.9134 7.8541 27.0645 8.17506 27.0645 8.55267V16.6523C25.9694 16.0103 24.7611 15.6894 23.4395 15.6894C21.778 15.6894 20.362 16.1708 19.1914 17.1337C18.0208 18.0966 17.4355 19.2389 17.4355 20.5605C17.4355 21.8821 18.0208 23.0149 19.1914 23.9589C20.362 24.9029 21.778 25.3749 23.4395 25.3749C25.1387 25.3749 26.5736 24.9029 27.7441 23.9589C28.9147 23.0149 29.5 21.8821 29.5 20.5605C29.5 20.2584 29.4245 19.843 29.2734 19.3144H29.5V3.62493C29.5 2.45436 29.0091 1.49147 28.0273 0.73626ZM6.56055 26.5644C5.57878 26.5644 4.72917 26.3284 4.01172 25.8564C3.29427 25.3844 2.93555 24.8274 2.93555 24.1855C2.93555 23.5058 3.29427 22.9299 4.01172 22.4579C4.72917 21.9859 5.57878 21.7499 6.56055 21.7499C7.54232 21.7499 8.39193 21.9859 9.10938 22.4579C9.82682 22.9299 10.1855 23.5058 10.1855 24.1855C10.1855 24.8274 9.82682 25.3844 9.10938 25.8564C8.39193 26.3284 7.54232 26.5644 6.56055 26.5644ZM23.4395 22.9394C22.4577 22.9394 21.6081 22.7034 20.8906 22.2314C20.1732 21.7594 19.8145 21.2024 19.8145 20.5605C19.8145 19.8808 20.1732 19.3049 20.8906 18.8329C21.6081 18.3609 22.4577 18.1249 23.4395 18.1249C24.4212 18.1249 25.2708 18.3609 25.9883 18.8329C26.7057 19.3049 27.0645 19.8808 27.0645 20.5605C27.0645 21.2024 26.7057 21.7594 25.9883 22.2314C25.2708 22.7034 24.4212 22.9394 23.4395 22.9394ZM24.9121 5.21087L12.8477 8.72259C12.7344 8.72259 12.64 8.76035 12.5645 8.83587V7.13665C12.5645 6.608 12.8477 6.21152 13.4141 5.9472L25.5352 2.43548C26.1016 2.43548 26.4603 2.511 26.6113 2.66204C26.9134 2.85084 27.0645 3.17181 27.0645 3.62493V5.21087C26.3848 4.90879 25.6673 4.90879 24.9121 5.21087Z" fill="#4777E1"/>
</g>
<defs>
<clipPath id="clip0_1_3151">
<rect width="29" height="29" fill="white" transform="translate(0.5)"/>
</clipPath>
</defs>
</svg>
