<svg width="23" height="23" viewBox="0 0 23 23" fill="none" xmlns="http://www.w3.org/2000/svg">
<g id="fluent-emoji:rocket" clip-path="url(#clip0_1_3186)">
<g id="Group">
<g id="Clip path group">
<mask id="mask0_1_3186" style="mask-type:luminance" maskUnits="userSpaceOnUse" x="0" y="0" width="23" height="23">
<g id="f2130idv">
<path id="Vector" d="M0.355469 0.189453H22.3555V22.1895H0.355469V0.189453Z" fill="white"/>
</g>
</mask>
<g mask="url(#mask0_1_3186)">
<g id="Group_2">
<path id="Vector_2" d="M7.63082 9.62067C8.45582 9.3168 9.25813 10.1191 8.95425 10.9448L7.15507 15.8357C7.11525 15.944 7.0488 16.0406 6.96182 16.1165C6.87485 16.1924 6.77016 16.2452 6.65741 16.27C6.54467 16.2948 6.42749 16.2908 6.31669 16.2584C6.20589 16.226 6.10504 16.1662 6.02344 16.0845L2.49107 12.5522C2.40957 12.4706 2.34991 12.3698 2.31759 12.259C2.28527 12.1483 2.28132 12.0313 2.3061 11.9186C2.33089 11.806 2.38362 11.7014 2.45943 11.6145C2.53525 11.5275 2.63171 11.4611 2.73994 11.4212L7.63082 9.61998V9.62067Z" fill="url(#paint0_linear_1_3186)"/>
<path id="Vector_3" d="M7.63082 9.62067C8.45582 9.3168 9.25813 10.1191 8.95425 10.9448L7.15507 15.8357C7.11525 15.944 7.0488 16.0406 6.96182 16.1165C6.87485 16.1924 6.77016 16.2452 6.65741 16.27C6.54467 16.2948 6.42749 16.2908 6.31669 16.2584C6.20589 16.226 6.10504 16.1662 6.02344 16.0845L2.49107 12.5522C2.40957 12.4706 2.34991 12.3698 2.31759 12.259C2.28527 12.1483 2.28132 12.0313 2.3061 11.9186C2.33089 11.806 2.38362 11.7014 2.45943 11.6145C2.53525 11.5275 2.63171 11.4611 2.73994 11.4212L7.63082 9.61998V9.62067Z" fill="url(#paint1_radial_1_3186)"/>
<path id="Vector_4" d="M7.63082 9.62067C8.45582 9.3168 9.25813 10.1191 8.95425 10.9448L7.15507 15.8357C7.11525 15.944 7.0488 16.0406 6.96182 16.1165C6.87485 16.1924 6.77016 16.2452 6.65741 16.27C6.54467 16.2948 6.42749 16.2908 6.31669 16.2584C6.20589 16.226 6.10504 16.1662 6.02344 16.0845L2.49107 12.5522C2.40957 12.4706 2.34991 12.3698 2.31759 12.259C2.28527 12.1483 2.28132 12.0313 2.3061 11.9186C2.33089 11.806 2.38362 11.7014 2.45943 11.6145C2.53525 11.5275 2.63171 11.4611 2.73994 11.4212L7.63082 9.61998V9.62067Z" fill="url(#paint2_linear_1_3186)"/>
<path id="Vector_5" d="M11.7548 13.7457C12.5805 13.4418 13.3828 14.2441 13.079 15.0698L11.2784 19.9607C11.2385 20.0689 11.1721 20.1654 11.0852 20.2412C10.9983 20.317 10.8937 20.3697 10.781 20.3945C10.6684 20.4193 10.5513 20.4153 10.4406 20.383C10.3299 20.3507 10.2291 20.291 10.1475 20.2095L6.61509 16.6772C6.53359 16.5956 6.47393 16.4948 6.44161 16.384C6.40929 16.2733 6.40534 16.1563 6.43013 16.0436C6.45492 15.931 6.50764 15.8264 6.58346 15.7395C6.65927 15.6525 6.75573 15.5861 6.86397 15.5462L11.7548 13.745V13.7457Z" fill="url(#paint3_linear_1_3186)"/>
<path id="Vector_6" d="M11.7548 13.7457C12.5805 13.4418 13.3828 14.2441 13.079 15.0698L11.2784 19.9607C11.2385 20.0689 11.1721 20.1654 11.0852 20.2412C10.9983 20.317 10.8937 20.3697 10.781 20.3945C10.6684 20.4193 10.5513 20.4153 10.4406 20.383C10.3299 20.3507 10.2291 20.291 10.1475 20.2095L6.61509 16.6772C6.53359 16.5956 6.47393 16.4948 6.44161 16.384C6.40929 16.2733 6.40534 16.1563 6.43013 16.0436C6.45492 15.931 6.50764 15.8264 6.58346 15.7395C6.65927 15.6525 6.75573 15.5861 6.86397 15.5462L11.7548 13.745V13.7457Z" fill="url(#paint4_radial_1_3186)"/>
<path id="Vector_7" d="M11.7548 13.7457C12.5805 13.4418 13.3828 14.2441 13.079 15.0698L11.2784 19.9607C11.2385 20.0689 11.1721 20.1654 11.0852 20.2412C10.9983 20.317 10.8937 20.3697 10.781 20.3945C10.6684 20.4193 10.5513 20.4153 10.4406 20.383C10.3299 20.3507 10.2291 20.291 10.1475 20.2095L6.61509 16.6772C6.53359 16.5956 6.47393 16.4948 6.44161 16.384C6.40929 16.2733 6.40534 16.1563 6.43013 16.0436C6.45492 15.931 6.50764 15.8264 6.58346 15.7395C6.65927 15.6525 6.75573 15.5861 6.86397 15.5462L11.7548 13.745V13.7457Z" fill="url(#paint5_radial_1_3186)"/>
<g id="Group_3" filter="url(#filter0_d_1_3186)">
<path id="Vector_8" d="M15.7556 2.63031C15.7744 2.62285 15.795 2.62109 15.8148 2.62525C15.8346 2.6294 15.8527 2.63929 15.867 2.65369L19.9129 6.73056C19.9272 6.74486 19.9369 6.76304 19.941 6.78284C19.945 6.80264 19.9431 6.82319 19.9356 6.84194C18.9662 9.22069 17.6304 11.7507 15.8422 13.5396C14.1001 15.2817 11.1535 16.766 8.49284 17.8577L4.71777 14.082C5.80952 11.4214 7.29384 8.47544 9.03596 6.73331C10.8303 4.93894 13.37 3.60037 15.7549 2.631L15.7556 2.63031Z" fill="url(#paint6_linear_1_3186)"/>
<path id="Vector_9" d="M15.7556 2.63031C15.7744 2.62285 15.795 2.62109 15.8148 2.62525C15.8346 2.6294 15.8527 2.63929 15.867 2.65369L19.9129 6.73056C19.9272 6.74486 19.9369 6.76304 19.941 6.78284C19.945 6.80264 19.9431 6.82319 19.9356 6.84194C18.9662 9.22069 17.6304 11.7507 15.8422 13.5396C14.1001 15.2817 11.1535 16.766 8.49284 17.8577L4.71777 14.082C5.80952 11.4214 7.29384 8.47544 9.03596 6.73331C10.8303 4.93894 13.37 3.60037 15.7549 2.631L15.7556 2.63031Z" fill="url(#paint7_radial_1_3186)"/>
<path id="Vector_10" d="M15.7556 2.63031C15.7744 2.62285 15.795 2.62109 15.8148 2.62525C15.8346 2.6294 15.8527 2.63929 15.867 2.65369L19.9129 6.73056C19.9272 6.74486 19.9369 6.76304 19.941 6.78284C19.945 6.80264 19.9431 6.82319 19.9356 6.84194C18.9662 9.22069 17.6304 11.7507 15.8422 13.5396C14.1001 15.2817 11.1535 16.766 8.49284 17.8577L4.71777 14.082C5.80952 11.4214 7.29384 8.47544 9.03596 6.73331C10.8303 4.93894 13.37 3.60037 15.7549 2.631L15.7556 2.63031Z" fill="url(#paint8_radial_1_3186)"/>
<path id="Vector_11" d="M15.7556 2.63031C15.7744 2.62285 15.795 2.62109 15.8148 2.62525C15.8346 2.6294 15.8527 2.63929 15.867 2.65369L19.9129 6.73056C19.9272 6.74486 19.9369 6.76304 19.941 6.78284C19.945 6.80264 19.9431 6.82319 19.9356 6.84194C18.9662 9.22069 17.6304 11.7507 15.8422 13.5396C14.1001 15.2817 11.1535 16.766 8.49284 17.8577L4.71777 14.082C5.80952 11.4214 7.29384 8.47544 9.03596 6.73331C10.8303 4.93894 13.37 3.60037 15.7549 2.631L15.7556 2.63031Z" fill="url(#paint9_radial_1_3186)"/>
<path id="Vector_12" d="M15.7556 2.63031C15.7744 2.62285 15.795 2.62109 15.8148 2.62525C15.8346 2.6294 15.8527 2.63929 15.867 2.65369L19.9129 6.73056C19.9272 6.74486 19.9369 6.76304 19.941 6.78284C19.945 6.80264 19.9431 6.82319 19.9356 6.84194C18.9662 9.22069 17.6304 11.7507 15.8422 13.5396C14.1001 15.2817 11.1535 16.766 8.49284 17.8577L4.71777 14.082C5.80952 11.4214 7.29384 8.47544 9.03596 6.73331C10.8303 4.93894 13.37 3.60037 15.7549 2.631L15.7556 2.63031Z" fill="url(#paint10_radial_1_3186)"/>
</g>
<g id="Group_4" filter="url(#filter1_ddd_1_3186)">
<path id="Vector_13" d="M17.1992 7.79481C17.2045 8.10147 17.1487 8.40611 17.035 8.69097C16.9213 8.97583 16.752 9.23519 16.537 9.45392C16.322 9.67266 16.0656 9.84639 15.7828 9.96499C15.4999 10.0836 15.1963 10.1447 14.8896 10.1447C14.5829 10.1447 14.2792 10.0836 13.9964 9.96499C13.7135 9.84639 13.4571 9.67266 13.2421 9.45392C13.0271 9.23519 12.8579 8.97583 12.7442 8.69097C12.6305 8.40611 12.5746 8.10147 12.5799 7.79481C12.5904 7.18915 12.8383 6.61183 13.2703 6.18721C13.7023 5.76259 14.2838 5.52466 14.8896 5.52466C15.4953 5.52466 16.0768 5.76259 16.5089 6.18721C16.9409 6.61183 17.1888 7.18915 17.1992 7.79481Z" fill="url(#paint11_linear_1_3186)"/>
<path id="Vector_14" d="M17.1992 7.79481C17.2045 8.10147 17.1487 8.40611 17.035 8.69097C16.9213 8.97583 16.752 9.23519 16.537 9.45392C16.322 9.67266 16.0656 9.84639 15.7828 9.96499C15.4999 10.0836 15.1963 10.1447 14.8896 10.1447C14.5829 10.1447 14.2792 10.0836 13.9964 9.96499C13.7135 9.84639 13.4571 9.67266 13.2421 9.45392C13.0271 9.23519 12.8579 8.97583 12.7442 8.69097C12.6305 8.40611 12.5746 8.10147 12.5799 7.79481C12.5904 7.18915 12.8383 6.61183 13.2703 6.18721C13.7023 5.76259 14.2838 5.52466 14.8896 5.52466C15.4953 5.52466 16.0768 5.76259 16.5089 6.18721C16.9409 6.61183 17.1888 7.18915 17.1992 7.79481Z" fill="url(#paint12_radial_1_3186)"/>
</g>
<path id="Vector_15" d="M16.4884 7.79473C16.4928 8.00747 16.4548 8.21896 16.3764 8.41679C16.298 8.61463 16.181 8.79484 16.0321 8.94685C15.8832 9.09887 15.7054 9.21964 15.5093 9.30209C15.3131 9.38454 15.1024 9.42701 14.8897 9.42701C14.6769 9.42701 14.4662 9.38454 14.27 9.30209C14.0739 9.21964 13.8961 9.09887 13.7472 8.94685C13.5983 8.79484 13.4813 8.61463 13.4029 8.41679C13.3246 8.21896 13.2865 8.00747 13.2909 7.79473C13.2995 7.37645 13.4718 6.97822 13.7707 6.68547C14.0696 6.39272 14.4713 6.22876 14.8897 6.22876C15.308 6.22876 15.7097 6.39272 16.0086 6.68547C16.3075 6.97822 16.4798 7.37645 16.4884 7.79473Z" fill="url(#paint13_radial_1_3186)"/>
<g id="Group_5" filter="url(#filter2_d_1_3186)">
<path id="Vector_16" d="M2.02129 20.4936C1.53523 20.0075 1.73048 16.636 3.44923 15.9485C3.44923 15.9485 5.16798 15.261 6.27554 16.361C7.3831 17.461 6.88673 18.6985 6.88673 18.6985C6.40067 20.1567 4.33129 20.7363 4.08792 20.4929C3.95385 20.3588 4.19517 20.1148 4.08792 20.0075C3.98067 19.8996 3.81429 20.0226 3.35917 20.2502C3.03467 20.4125 2.21585 20.6881 2.02129 20.4936Z" fill="url(#paint14_radial_1_3186)"/>
<path id="Vector_17" d="M2.02129 20.4936C1.53523 20.0075 1.73048 16.636 3.44923 15.9485C3.44923 15.9485 5.16798 15.261 6.27554 16.361C7.3831 17.461 6.88673 18.6985 6.88673 18.6985C6.40067 20.1567 4.33129 20.7363 4.08792 20.4929C3.95385 20.3588 4.19517 20.1148 4.08792 20.0075C3.98067 19.8996 3.81429 20.0226 3.35917 20.2502C3.03467 20.4125 2.21585 20.6881 2.02129 20.4936Z" fill="url(#paint15_radial_1_3186)"/>
</g>
<path id="Vector_18" d="M4.52152 14.6148C4.61729 14.5189 4.731 14.4429 4.85616 14.3911C4.98132 14.3392 5.11547 14.3125 5.25096 14.3125C5.38644 14.3125 5.52059 14.3392 5.64575 14.3911C5.77091 14.4429 5.88462 14.5189 5.98039 14.6148L8.41071 17.0458C8.59528 17.2408 8.6965 17.5002 8.69283 17.7687C8.68916 18.0372 8.58089 18.2937 8.39105 18.4836C8.20121 18.6736 7.94477 18.782 7.67626 18.7857C7.40774 18.7895 7.14834 18.6885 6.95321 18.504L4.52152 16.0737C4.42569 15.9779 4.34967 15.8642 4.2978 15.739C4.24593 15.6139 4.21924 15.4797 4.21924 15.3442C4.21924 15.2087 4.24593 15.0746 4.2978 14.9494C4.34967 14.8243 4.42569 14.7105 4.52152 14.6148Z" fill="url(#paint16_linear_1_3186)"/>
<path id="Vector_19" d="M4.52152 14.6148C4.61729 14.5189 4.731 14.4429 4.85616 14.3911C4.98132 14.3392 5.11547 14.3125 5.25096 14.3125C5.38644 14.3125 5.52059 14.3392 5.64575 14.3911C5.77091 14.4429 5.88462 14.5189 5.98039 14.6148L8.41071 17.0458C8.59528 17.2408 8.6965 17.5002 8.69283 17.7687C8.68916 18.0372 8.58089 18.2937 8.39105 18.4836C8.20121 18.6736 7.94477 18.782 7.67626 18.7857C7.40774 18.7895 7.14834 18.6885 6.95321 18.504L4.52152 16.0737C4.42569 15.9779 4.34967 15.8642 4.2978 15.739C4.24593 15.6139 4.21924 15.4797 4.21924 15.3442C4.21924 15.2087 4.24593 15.0746 4.2978 14.9494C4.34967 14.8243 4.42569 14.7105 4.52152 14.6148Z" fill="url(#paint17_radial_1_3186)"/>
<path id="Vector_20" d="M4.52152 14.6148C4.61729 14.5189 4.731 14.4429 4.85616 14.3911C4.98132 14.3392 5.11547 14.3125 5.25096 14.3125C5.38644 14.3125 5.52059 14.3392 5.64575 14.3911C5.77091 14.4429 5.88462 14.5189 5.98039 14.6148L8.41071 17.0458C8.59528 17.2408 8.6965 17.5002 8.69283 17.7687C8.68916 18.0372 8.58089 18.2937 8.39105 18.4836C8.20121 18.6736 7.94477 18.782 7.67626 18.7857C7.40774 18.7895 7.14834 18.6885 6.95321 18.504L4.52152 16.0737C4.42569 15.9779 4.34967 15.8642 4.2978 15.739C4.24593 15.6139 4.21924 15.4797 4.21924 15.3442C4.21924 15.2087 4.24593 15.0746 4.2978 14.9494C4.34967 14.8243 4.42569 14.7105 4.52152 14.6148Z" fill="url(#paint18_radial_1_3186)"/>
<path id="Vector_21" d="M20.4113 2.16338C19.7603 1.51232 18.6183 1.58588 17.7865 1.87188C17.1588 2.08697 16.5367 2.31782 15.9206 2.5642C15.9101 2.56841 15.9008 2.57516 15.8935 2.58385C15.8862 2.59253 15.8812 2.60288 15.8789 2.61397C15.8766 2.62506 15.877 2.63654 15.8802 2.64741C15.8834 2.65828 15.8893 2.66819 15.8972 2.67626L19.8916 6.69745C19.8996 6.70526 19.9094 6.711 19.9202 6.71416C19.9309 6.71731 19.9423 6.71779 19.9533 6.71556C19.9643 6.71332 19.9745 6.70844 19.9832 6.70132C19.9919 6.69421 19.9986 6.68509 20.003 6.67476C20.2524 6.05219 20.486 5.42339 20.7035 4.78895C20.9854 3.96807 21.2123 2.96432 20.4113 2.16338Z" fill="url(#paint19_linear_1_3186)"/>
<path id="Vector_22" d="M20.4113 2.16338C19.7603 1.51232 18.6183 1.58588 17.7865 1.87188C17.1588 2.08697 16.5367 2.31782 15.9206 2.5642C15.9101 2.56841 15.9008 2.57516 15.8935 2.58385C15.8862 2.59253 15.8812 2.60288 15.8789 2.61397C15.8766 2.62506 15.877 2.63654 15.8802 2.64741C15.8834 2.65828 15.8893 2.66819 15.8972 2.67626L19.8916 6.69745C19.8996 6.70526 19.9094 6.711 19.9202 6.71416C19.9309 6.71731 19.9423 6.71779 19.9533 6.71556C19.9643 6.71332 19.9745 6.70844 19.9832 6.70132C19.9919 6.69421 19.9986 6.68509 20.003 6.67476C20.2524 6.05219 20.486 5.42339 20.7035 4.78895C20.9854 3.96807 21.2123 2.96432 20.4113 2.16338Z" fill="url(#paint20_radial_1_3186)"/>
<path id="Vector_23" d="M20.4113 2.16338C19.7603 1.51232 18.6183 1.58588 17.7865 1.87188C17.1588 2.08697 16.5367 2.31782 15.9206 2.5642C15.9101 2.56841 15.9008 2.57516 15.8935 2.58385C15.8862 2.59253 15.8812 2.60288 15.8789 2.61397C15.8766 2.62506 15.877 2.63654 15.8802 2.64741C15.8834 2.65828 15.8893 2.66819 15.8972 2.67626L19.8916 6.69745C19.8996 6.70526 19.9094 6.711 19.9202 6.71416C19.9309 6.71731 19.9423 6.71779 19.9533 6.71556C19.9643 6.71332 19.9745 6.70844 19.9832 6.70132C19.9919 6.69421 19.9986 6.68509 20.003 6.67476C20.2524 6.05219 20.486 5.42339 20.7035 4.78895C20.9854 3.96807 21.2123 2.96432 20.4113 2.16338Z" fill="url(#paint21_linear_1_3186)"/>
<path id="Vector_24" d="M9.69303 11.6832C10.518 11.3793 11.3203 12.1816 11.0165 13.0073L9.21659 17.8982C9.17678 18.0065 9.11032 18.1031 9.02335 18.179C8.93637 18.2549 8.83169 18.3077 8.71894 18.3325C8.60619 18.3573 8.48901 18.3533 8.37822 18.3209C8.26742 18.2885 8.16657 18.2287 8.08496 18.147L4.55259 14.6147C4.47109 14.5331 4.41143 14.4323 4.37911 14.3215C4.34679 14.2108 4.34284 14.0938 4.36763 13.9811C4.39242 13.8685 4.44514 13.7639 4.52096 13.677C4.59677 13.59 4.69323 13.5236 4.80146 13.4837L9.69303 11.6825V11.6832Z" fill="url(#paint22_linear_1_3186)"/>
<path id="Vector_25" d="M9.69303 11.6832C10.518 11.3793 11.3203 12.1816 11.0165 13.0073L9.21659 17.8982C9.17678 18.0065 9.11032 18.1031 9.02335 18.179C8.93637 18.2549 8.83169 18.3077 8.71894 18.3325C8.60619 18.3573 8.48901 18.3533 8.37822 18.3209C8.26742 18.2885 8.16657 18.2287 8.08496 18.147L4.55259 14.6147C4.47109 14.5331 4.41143 14.4323 4.37911 14.3215C4.34679 14.2108 4.34284 14.0938 4.36763 13.9811C4.39242 13.8685 4.44514 13.7639 4.52096 13.677C4.59677 13.59 4.69323 13.5236 4.80146 13.4837L9.69303 11.6825V11.6832Z" fill="url(#paint23_radial_1_3186)"/>
<path id="Vector_26" d="M9.69303 11.6832C10.518 11.3793 11.3203 12.1816 11.0165 13.0073L9.21659 17.8982C9.17678 18.0065 9.11032 18.1031 9.02335 18.179C8.93637 18.2549 8.83169 18.3077 8.71894 18.3325C8.60619 18.3573 8.48901 18.3533 8.37822 18.3209C8.26742 18.2885 8.16657 18.2287 8.08496 18.147L4.55259 14.6147C4.47109 14.5331 4.41143 14.4323 4.37911 14.3215C4.34679 14.2108 4.34284 14.0938 4.36763 13.9811C4.39242 13.8685 4.44514 13.7639 4.52096 13.677C4.59677 13.59 4.69323 13.5236 4.80146 13.4837L9.69303 11.6825V11.6832Z" fill="url(#paint24_radial_1_3186)"/>
<path id="Vector_27" d="M9.69303 11.6832C10.518 11.3793 11.3203 12.1816 11.0165 13.0073L9.21659 17.8982C9.17678 18.0065 9.11032 18.1031 9.02335 18.179C8.93637 18.2549 8.83169 18.3077 8.71894 18.3325C8.60619 18.3573 8.48901 18.3533 8.37822 18.3209C8.26742 18.2885 8.16657 18.2287 8.08496 18.147L4.55259 14.6147C4.47109 14.5331 4.41143 14.4323 4.37911 14.3215C4.34679 14.2108 4.34284 14.0938 4.36763 13.9811C4.39242 13.8685 4.44514 13.7639 4.52096 13.677C4.59677 13.59 4.69323 13.5236 4.80146 13.4837L9.69303 11.6825V11.6832Z" fill="url(#paint25_radial_1_3186)"/>
<g id="Group_6" filter="url(#filter3_f_1_3186)">
<path id="Vector_28" d="M6.68408 15.347L10.5513 12.3171L8.05908 16.7433L6.68408 15.347Z" fill="url(#paint26_linear_1_3186)"/>
</g>
</g>
</g>
</g>
</g>
</g>
<defs>
<filter id="filter0_d_1_3186" x="2.96777" y="0.623047" width="18.2251" height="18.2346" filterUnits="userSpaceOnUse" color-interpolation-filters="sRGB">
<feFlood flood-opacity="0" result="BackgroundImageFix"/>
<feColorMatrix in="SourceAlpha" type="matrix" values="0 0 0 0 0 0 0 0 0 0 0 0 0 0 0 0 0 0 127 0" result="hardAlpha"/>
<feOffset dx="-0.25" dy="-0.5"/>
<feGaussianBlur stdDeviation="0.75"/>
<feComposite in2="hardAlpha" operator="out"/>
<feColorMatrix type="matrix" values="0 0 0 0 0.745098 0 0 0 0 0.772549 0 0 0 0 0.952941 0 0 0 1 0"/>
<feBlend mode="normal" in2="BackgroundImageFix" result="effect1_dropShadow_1_3186"/>
<feBlend mode="normal" in="SourceGraphic" in2="effect1_dropShadow_1_3186" result="shape"/>
</filter>
<filter id="filter1_ddd_1_3186" x="11.5796" y="4.77466" width="6.62012" height="6.62012" filterUnits="userSpaceOnUse" color-interpolation-filters="sRGB">
<feFlood flood-opacity="0" result="BackgroundImageFix"/>
<feColorMatrix in="SourceAlpha" type="matrix" values="0 0 0 0 0 0 0 0 0 0 0 0 0 0 0 0 0 0 127 0" result="hardAlpha"/>
<feOffset dy="0.25"/>
<feGaussianBlur stdDeviation="0.5"/>
<feComposite in2="hardAlpha" operator="out"/>
<feColorMatrix type="matrix" values="0 0 0 0 0.866667 0 0 0 0 0.764706 0 0 0 0 0.847059 0 0 0 1 0"/>
<feBlend mode="normal" in2="BackgroundImageFix" result="effect1_dropShadow_1_3186"/>
<feColorMatrix in="SourceAlpha" type="matrix" values="0 0 0 0 0 0 0 0 0 0 0 0 0 0 0 0 0 0 127 0" result="hardAlpha"/>
<feOffset dx="-0.1" dy="0.1"/>
<feGaussianBlur stdDeviation="0.05"/>
<feComposite in2="hardAlpha" operator="out"/>
<feColorMatrix type="matrix" values="0 0 0 0 0.721569 0 0 0 0 0.690196 0 0 0 0 0.701961 0 0 0 1 0"/>
<feBlend mode="normal" in2="effect1_dropShadow_1_3186" result="effect2_dropShadow_1_3186"/>
<feColorMatrix in="SourceAlpha" type="matrix" values="0 0 0 0 0 0 0 0 0 0 0 0 0 0 0 0 0 0 127 0" result="hardAlpha"/>
<feOffset dx="0.1" dy="-0.1"/>
<feGaussianBlur stdDeviation="0.05"/>
<feComposite in2="hardAlpha" operator="out"/>
<feColorMatrix type="matrix" values="0 0 0 0 0.615686 0 0 0 0 0.560784 0 0 0 0 0.65098 0 0 0 1 0"/>
<feBlend mode="normal" in2="effect2_dropShadow_1_3186" result="effect3_dropShadow_1_3186"/>
<feBlend mode="normal" in="SourceGraphic" in2="effect3_dropShadow_1_3186" result="shape"/>
</filter>
<filter id="filter2_d_1_3186" x="1.39053" y="15.1363" width="6.00703" height="5.62422" filterUnits="userSpaceOnUse" color-interpolation-filters="sRGB">
<feFlood flood-opacity="0" result="BackgroundImageFix"/>
<feColorMatrix in="SourceAlpha" type="matrix" values="0 0 0 0 0 0 0 0 0 0 0 0 0 0 0 0 0 0 127 0" result="hardAlpha"/>
<feOffset dy="-0.2"/>
<feGaussianBlur stdDeviation="0.2"/>
<feComposite in2="hardAlpha" operator="out"/>
<feColorMatrix type="matrix" values="0 0 0 0 0.847059 0 0 0 0 0.505882 0 0 0 0 0.360784 0 0 0 1 0"/>
<feBlend mode="normal" in2="BackgroundImageFix" result="effect1_dropShadow_1_3186"/>
<feBlend mode="normal" in="SourceGraphic" in2="effect1_dropShadow_1_3186" result="shape"/>
</filter>
<filter id="filter3_f_1_3186" x="5.68408" y="11.3171" width="5.86719" height="6.42603" filterUnits="userSpaceOnUse" color-interpolation-filters="sRGB">
<feFlood flood-opacity="0" result="BackgroundImageFix"/>
<feBlend mode="normal" in="SourceGraphic" in2="BackgroundImageFix" result="shape"/>
<feGaussianBlur stdDeviation="0.5" result="effect1_foregroundBlur_1_3186"/>
</filter>
<linearGradient id="paint0_linear_1_3186" x1="5.932" y1="12.0888" x2="2.4945" y2="11.5223" gradientUnits="userSpaceOnUse">
<stop stop-color="#EE2452"/>
<stop offset="1" stop-color="#F63E7A"/>
</linearGradient>
<radialGradient id="paint1_radial_1_3186" cx="0" cy="0" r="1" gradientUnits="userSpaceOnUse" gradientTransform="translate(2.00432 11.9204) rotate(-19.9576) scale(5.50115 0.935311)">
<stop offset="0.164" stop-color="#FF8DB0"/>
<stop offset="1" stop-color="#FF8DB0" stop-opacity="0"/>
</radialGradient>
<linearGradient id="paint2_linear_1_3186" x1="3.72788" y1="13.756" x2="4.28819" y2="13.2094" gradientUnits="userSpaceOnUse">
<stop offset="0.491" stop-color="#DD467C"/>
<stop offset="1" stop-color="#DD467C" stop-opacity="0"/>
</linearGradient>
<linearGradient id="paint3_linear_1_3186" x1="12.6562" y1="15.089" x2="8.38128" y2="18.4434" gradientUnits="userSpaceOnUse">
<stop stop-color="#F83267"/>
<stop offset="1" stop-color="#FF3190"/>
</linearGradient>
<radialGradient id="paint4_radial_1_3186" cx="0" cy="0" r="1" gradientUnits="userSpaceOnUse" gradientTransform="translate(10.3788 15.4539) rotate(86.482) scale(5.25186 4.52792)">
<stop offset="0.757" stop-color="#E76CBE" stop-opacity="0"/>
<stop offset="0.951" stop-color="#E76CBE"/>
</radialGradient>
<radialGradient id="paint5_radial_1_3186" cx="0" cy="0" r="1" gradientUnits="userSpaceOnUse" gradientTransform="translate(9.60503 18.2254) rotate(-57.346) scale(3.62348 1.59161)">
<stop stop-color="#FF5898"/>
<stop offset="1" stop-color="#FF5898" stop-opacity="0"/>
</radialGradient>
<linearGradient id="paint6_linear_1_3186" x1="9.62721" y1="6.15169" x2="15.6855" y2="12.2532" gradientUnits="userSpaceOnUse">
<stop stop-color="#CCBBC0"/>
<stop offset="1" stop-color="#EAD2EC"/>
</linearGradient>
<radialGradient id="paint7_radial_1_3186" cx="0" cy="0" r="1" gradientUnits="userSpaceOnUse" gradientTransform="translate(16.835 15.0239) rotate(-142.447) scale(11.4654 21.552)">
<stop offset="0.811" stop-color="#E7E5E5" stop-opacity="0"/>
<stop offset="1" stop-color="#E7E5E5"/>
</radialGradient>
<radialGradient id="paint8_radial_1_3186" cx="0" cy="0" r="1" gradientUnits="userSpaceOnUse" gradientTransform="translate(6.66752 14.8403) rotate(-56.929) scale(6.74012 3.16779)">
<stop offset="0.281" stop-color="#B5A3A5"/>
<stop offset="1" stop-color="#B5A3A5" stop-opacity="0"/>
</radialGradient>
<radialGradient id="paint9_radial_1_3186" cx="0" cy="0" r="1" gradientUnits="userSpaceOnUse" gradientTransform="translate(4.71731 14.0021) rotate(-73.625) scale(5.97519 1.01248)">
<stop offset="0.208" stop-color="#B28F96"/>
<stop offset="1" stop-color="#B28F96" stop-opacity="0"/>
</radialGradient>
<radialGradient id="paint10_radial_1_3186" cx="0" cy="0" r="1" gradientUnits="userSpaceOnUse" gradientTransform="translate(18.9937 5.07781) rotate(137.284) scale(9.05781 2.81235)">
<stop stop-color="#FAECF1"/>
<stop offset="1" stop-color="#FAECF1" stop-opacity="0"/>
</radialGradient>
<linearGradient id="paint11_linear_1_3186" x1="12.5799" y1="7.40225" x2="17.1992" y2="7.79481" gradientUnits="userSpaceOnUse">
<stop stop-color="#A796A0"/>
<stop offset="1" stop-color="#A5959F"/>
</linearGradient>
<radialGradient id="paint12_radial_1_3186" cx="0" cy="0" r="1" gradientUnits="userSpaceOnUse" gradientTransform="translate(14.8906 7.79481) rotate(90) scale(2.30957)">
<stop offset="0.587" stop-color="#93859B"/>
<stop offset="1" stop-color="#93859B" stop-opacity="0"/>
</radialGradient>
<radialGradient id="paint13_radial_1_3186" cx="0" cy="0" r="1" gradientUnits="userSpaceOnUse" gradientTransform="translate(14.8893 9.39385) rotate(-90) scale(3.33134 3.06368)">
<stop stop-color="#72CDFF"/>
<stop offset="0.738" stop-color="#66ACFF"/>
<stop offset="1" stop-color="#3B57F4"/>
</radialGradient>
<radialGradient id="paint14_radial_1_3186" cx="0" cy="0" r="1" gradientUnits="userSpaceOnUse" gradientTransform="translate(5.98679 16.8595) rotate(135) scale(3.99193 3.13775)">
<stop stop-color="#D46213"/>
<stop offset="1" stop-color="#FF9542"/>
</radialGradient>
<radialGradient id="paint15_radial_1_3186" cx="0" cy="0" r="1" gradientUnits="userSpaceOnUse" gradientTransform="translate(6.06448 20.1065) rotate(-131.186) scale(4.93249 5.19802)">
<stop offset="0.871" stop-color="#FFC484" stop-opacity="0"/>
<stop offset="1" stop-color="#FFC484"/>
</radialGradient>
<linearGradient id="paint16_linear_1_3186" x1="4.34139" y1="15.2823" x2="8.12264" y2="18.999" gradientUnits="userSpaceOnUse">
<stop stop-color="#452860"/>
<stop offset="1" stop-color="#51509F"/>
</linearGradient>
<radialGradient id="paint17_radial_1_3186" cx="0" cy="0" r="1" gradientUnits="userSpaceOnUse" gradientTransform="translate(5.05089 14.9386) rotate(77.8285) scale(1.1209 0.990344)">
<stop stop-color="#8E839A"/>
<stop offset="1" stop-color="#8E839A" stop-opacity="0"/>
</radialGradient>
<radialGradient id="paint18_radial_1_3186" cx="0" cy="0" r="1" gradientUnits="userSpaceOnUse" gradientTransform="translate(5.31008 15.602) rotate(47.9357) scale(4.27096 2.23875)">
<stop offset="0.86" stop-color="#6175B9" stop-opacity="0"/>
<stop offset="1" stop-color="#6175B9"/>
</radialGradient>
<linearGradient id="paint19_linear_1_3186" x1="20.4148" y1="2.16682" x2="17.8875" y2="4.69407" gradientUnits="userSpaceOnUse">
<stop stop-color="#FF3745"/>
<stop offset="1" stop-color="#ED224B"/>
</linearGradient>
<radialGradient id="paint20_radial_1_3186" cx="0" cy="0" r="1" gradientUnits="userSpaceOnUse" gradientTransform="translate(20.1136 3.17877) rotate(135) scale(5.66965 1.36104)">
<stop offset="0.189" stop-color="#FF5971"/>
<stop offset="1" stop-color="#FF5971" stop-opacity="0"/>
</radialGradient>
<linearGradient id="paint21_linear_1_3186" x1="18.1082" y1="4.86251" x2="18.3605" y2="4.5992" gradientUnits="userSpaceOnUse">
<stop stop-color="#D2575E"/>
<stop offset="1" stop-color="#F93251" stop-opacity="0"/>
</linearGradient>
<linearGradient id="paint22_linear_1_3186" x1="10.7779" y1="11.9217" x2="6.31878" y2="16.3809" gradientUnits="userSpaceOnUse">
<stop stop-color="#FF2644"/>
<stop offset="1" stop-color="#FF2982"/>
</linearGradient>
<radialGradient id="paint23_radial_1_3186" cx="0" cy="0" r="1" gradientUnits="userSpaceOnUse" gradientTransform="translate(4.64265 13.5422) rotate(-20.865) scale(5.12725 1.34227)">
<stop stop-color="#FF95AF"/>
<stop offset="1" stop-color="#FF95AF" stop-opacity="0"/>
</radialGradient>
<radialGradient id="paint24_radial_1_3186" cx="0" cy="0" r="1" gradientUnits="userSpaceOnUse" gradientTransform="translate(4.06653 14.1513) rotate(44.7044) scale(3.16952 0.936247)">
<stop offset="0.382" stop-color="#E14678"/>
<stop offset="1" stop-color="#E14678" stop-opacity="0"/>
</radialGradient>
<radialGradient id="paint25_radial_1_3186" cx="0" cy="0" r="1" gradientUnits="userSpaceOnUse" gradientTransform="translate(8.31665 13.3483) rotate(84.6743) scale(5.09229 5.42658)">
<stop offset="0.832" stop-color="#E67BC7" stop-opacity="0"/>
<stop offset="1" stop-color="#E67BC7"/>
</radialGradient>
<linearGradient id="paint26_linear_1_3186" x1="9.97102" y1="12.6396" x2="7.13508" y2="15.6048" gradientUnits="userSpaceOnUse">
<stop stop-color="#FF5970"/>
<stop offset="1" stop-color="#FF5794"/>
</linearGradient>
<clipPath id="clip0_1_3186">
<rect width="22" height="22" fill="white" transform="translate(0.355469 0.189453)"/>
</clipPath>
</defs>
</svg>
